<?xml version="1.0" encoding="utf-8"?>
<!-- Generator: Adobe Illustrator 17.1.0, SVG Export Plug-In . SVG Version: 6.00 Build 0)  -->
<!DOCTYPE svg PUBLIC "-//W3C//DTD SVG 1.1//EN" "http://www.w3.org/Graphics/SVG/1.1/DTD/svg11.dtd">
<svg version="1.1" id="Layer_1" xmlns="http://www.w3.org/2000/svg" xmlns:xlink="http://www.w3.org/1999/xlink" x="0px" y="0px"
	 viewBox="0 0 171 57" enable-background="new 0 0 171 57" xml:space="preserve">
<g>
	<path fill="#B4975A" d="M18.8,24.1c0.3,0.3,0.7,0.9,0.8,1.1c0,0.2-0.1,1.4-0.2,1.9c-0.1,0.4-0.4,0.9-0.7,1.1
		c-0.2,0.2-0.7,0.6-1,0.7c-0.1-0.2-0.3-0.9-0.3-0.9c-0.1-0.3-0.1-0.5-0.1-0.7c0-0.3,0.1-0.5,0.1-0.5C17.3,26.8,18.4,24.6,18.8,24.1"
		/>
	<path fill="#B4975A" d="M25.1,0.6"/>
	<path fill="#B4975A" d="M22.8,0.6"/>
	<path fill="#B4975A" d="M16.6,21.9c-1.2,0.3-1.4,0.1-2-0.5c-0.6-0.6-0.7-1.2-0.3-1.7c0.3-0.2,0.5-0.4,1-0.1
		c0.9,0.5,1.8,0.1,2.1-0.2l0.1-0.1v-0.1c0-1.2-0.6-1.9-1.7-1.9c-0.6,0-1.4,0.3-2,0.5c0.3-0.8,1-2,1.4-2.7c0.2-0.3,0.3-0.7,0.3-1.1
		c0-0.7-0.2-1.3-0.2-1.3l0-0.1h-0.1c-0.7,0-1.7,0.3-2.2,1.5c-0.3,0.6-0.4,1.9-0.5,2.8c0,0.3-0.1,0.6-0.1,0.8
		c-0.1-0.3-0.4-0.6-0.6-1.2c-0.8-1.8-1.8-3.4-2.4-4.2c-0.7-0.9-1.9-0.8-2-0.8c-0.5,0-0.9,0.2-0.9,0.2c-0.8,0.4-1,1.2-1,2.1
		c0,1.8,2.1,2,2.1,2s0.3-0.6,0.4-1c0.7,0.6,1.6,2.5,2.1,3.7c-0.7-0.4-2-1.1-2.7-1.5c-0.9-0.6-1.7-0.3-1.7-0.2c0,0-1.5,0.5-1.5,0.5
		L4,17.2l0.1,0.2c0,0,0.5,1,0.9,1.4c0.5,0.5,1.2,0.8,2.1,0.8c0.4,0,1.3,0.3,2.1,0.6c-0.8,0-1.5-0.1-2.1-0.1
		c-0.9-0.1-1.2,0.3-1.3,0.4c0,0-0.9,1-0.9,1L6,22.3c0.6,0.3,1.1,0.4,1.7,0.2l1.8-0.8c1.9-0.5,4.4,0.9,4.4,0.9l0.2,0
		c0.3,0.1,0.6,0.2,1,0.2l0.3,0c0.8,0.1,1.6,0,2,0l1-1.6C18.3,21.3,17.8,21.6,16.6,21.9"/>
	<polygon fill="#B4975A" points="22.5,13 22.5,13 22.5,13.4 	"/>
	<path fill="#B4975A" d="M23.3,38.8L23.3,38.8L23.3,38.8z"/>
	<path fill="#B4975A" d="M27.6,36.3c0-0.4-0.3-1.4-0.8-1.4c-0.4,0-0.8,1-0.8,1.4c0,0.2,0.1,0.4,0.2,0.5c-0.2,0.1-0.2,0.3-0.2,0.7
		c0,0.4-0.1,0.4-0.2,0.5l-0.1,0.1c0,0,0,0-0.1,0.1c-0.4-0.2-1.3-0.3-1.7-0.4c0-0.1-0.1-0.1-0.1-0.1l-0.1,0c-0.1-0.1-0.1-0.1-0.1-0.2
		v-0.6c0.1-0.1,0.4-0.3,0.4-0.6c0-0.1-0.1-0.8-0.1-0.9c0,0-0.1,0-0.1-0.1c0.1-0.1,0.2-0.3,0.2-0.5c0-0.4-0.3-0.8-0.8-0.8
		c-0.4,0-0.8,0.3-0.8,0.8c0,0.2,0.1,0.4,0.2,0.5c0,0,0,0-0.1,0c-0.1,0.1-0.1,0.8-0.1,0.9c0,0.3,0.2,0.5,0.3,0.6v0.6
		c0,0.1,0,0.1-0.1,0.2l-0.1,0c0,0,0,0.1-0.1,0.1c-0.4,0-1.2,0.1-1.7,0.4c0,0-0.1-0.1-0.1-0.1L20.9,38c-0.1-0.1-0.2-0.2-0.2-0.5
		c0-0.4-0.1-0.6-0.2-0.7c0.1-0.1,0.2-0.3,0.2-0.5c0-0.4-0.3-1.4-0.8-1.4c-0.4,0-0.8,1-0.8,1.4c0,0.3,0.2,0.5,0.4,0.7
		c0,0.1,0,0.1,0,0.2c0,0.1,0,0.2,0,0.2c0,0,0.9,1.9,1.1,2.2c0,0.1,0,0.1,0,0.1c0,0.8,1.9,0.9,2.7,0.9c0.8,0,2.8-0.1,2.8-0.9
		c0,0,0-0.1,0-0.1c0.1-0.1,1.1-2.2,1.1-2.2c0,0,0-0.1,0-0.2c0-0.1,0-0.1,0-0.2C27.4,36.9,27.6,36.6,27.6,36.3 M17.8,33.7h11.1
		c0,0-0.2,4.1-0.3,7.4H18.1C18.1,41.2,17.8,34.6,17.8,33.7"/>
	<path fill="#B4975A" d="M27.6,43.2c0-0.4-0.4-0.8-0.8-0.8c-0.4,0-0.8,0.4-0.8,0.8c0,0.2,0.1,0.4,0.2,0.5C26.1,43.8,26,44,26,44.4
		c0,0.4-0.1,0.4-0.2,0.5L25.8,45c0,0,0,0-0.1,0.1c-0.4-0.2-1.2-0.3-1.6-0.4c0-0.1-0.1-0.1-0.1-0.1l-0.1-0.1c0,0,0,0,0,0
		c0,0,0-0.1,0-0.1v-0.6c0.1-0.1,0.3-0.3,0.3-0.6c0-0.1-0.1-0.3-0.2-0.3c0,0,0,0-0.1,0c0.1-0.1,0.2-0.3,0.2-0.5
		c0-0.4-0.4-0.8-0.8-0.8c-0.4,0-0.8,0.4-0.8,0.8c0,0.2,0.1,0.4,0.2,0.5c0,0,0,0,0,0c-0.1,0.1-0.2,0.2-0.2,0.3c0,0.3,0.2,0.5,0.3,0.6
		v0.6c0,0,0,0.1,0,0.1c0,0,0,0,0,0l-0.1,0.1c0,0,0,0.1-0.1,0.1c-0.4,0-1.2,0.1-1.6,0.4c0,0-0.1-0.1-0.1-0.1L21,44.9
		c-0.1-0.1-0.2-0.2-0.2-0.5c0-0.3-0.1-0.5-0.2-0.7c0.1-0.1,0.2-0.3,0.2-0.5c0-0.4-0.4-0.8-0.8-0.8c-0.4,0-0.8,0.4-0.8,0.8
		c0,0.3,0.2,0.6,0.4,0.7c0,0.1,0,0.1,0,0.2c0,0.1,0,0.2,0,0.2l0,0c0,0,1,2.1,1.1,2.2c0,0.1,0,0.1,0,0.1c0,0.8,1.7,0.9,2.8,0.9
		c1,0,2.8-0.1,2.8-0.9c0,0,0-0.1,0-0.1c0.1-0.1,1.1-2.2,1.1-2.2l0,0c0,0,0-0.1,0-0.2c0-0.1,0-0.1,0-0.2
		C27.5,43.8,27.6,43.5,27.6,43.2"/>
	<path fill="#B4975A" d="M40,47.1c0,0.5-0.2,1.4-0.5,2.3c-0.6,0.4-1.1,0.9-1.1,0.9c0.1-1.7-0.8-2.2-0.8-2.2c0.2,0.8-2.1,1.4-2.1,1.4
		c-0.3-1.1,0.8-2.2,0.8-2.2c-1.6-0.7-3.6,1.1-3.6,1.1c0.5-0.8-0.4-2.3-0.4-2.3c-0.1,0.5-0.6,1-1.1,1.4c-0.3,0.5-0.6,1-0.9,1.6
		c-1.9,3.1-6.5,5.6-6.7,5.7l-0.3,0.2L23,54.7c-0.2-0.1-4.8-2.6-6.7-5.7c-0.3-0.6-0.7-1.1-0.9-1.6c-0.5,0.6-0.9,1.1-0.9,1.1
		c-0.7-1.5-2.9-2.2-2.9-2.2c0.7,1.2,0,3-0.4,3.2c0,0,0.1-0.2,0-0.4c-0.5-1.6-1.9-1.6-1.9-1.6c0.5,1.3-0.8,2.4-0.8,2.4
		c-0.3-0.5-0.3-1.8-0.3-1.8s-0.4,0-0.9,0.4C7,48,6.9,47.5,6.9,47.1c0-0.1,0-0.2,0-0.3c0-0.8,0.2-1.2,0.2-1.2C8,44,8.4,42.4,8.4,42.1
		c0,0,0.6-0.6,1-1.1c0.1,0,1-0.1,1.2-0.1c0.2,0,0.7,0.1,0.9,0.1s0.7-0.2,0.7-0.6c0-0.4,0.3-1.5,0.3-1.5s1.3-4.5,1.3-4.4
		c0,0,0.1-0.2,0.3-0.3c0.1,2.2,0.3,5.5,0.3,6.8c0,2.6,0.6,4.8,2.5,7.7c1.9,3,6.5,5.4,6.5,5.4s4.6-2.5,6.4-5.4c1.9-3,2.5-5.1,2.5-7.7
		c0-1.1,0.1-3.7,0.2-5.7c0,0,0,0,0.1,0c0,0,0.3-0.1,0.4-0.5c0.3,0.9,1.2,4.1,1.2,4.1s0.5,1,0.6,1.5c0.1,0.4,0.5,0.6,0.7,0.6
		c0.2,0,0.7-0.1,0.9-0.1c0.2,0,0.9,0.1,1.1,0.1c0.4,0.5,0.9,1,1,1.1c0.1,0.3,0.4,2,1.3,3.6c0,0,0.2,0.4,0.2,1.2C40,47,40,47,40,47.1
		 M23.4,33h6.4c0,0-0.3,6.1-0.3,8c0,1.9-0.4,3.5-1.7,5.6c-1.3,2.2-4.4,4-4.4,4s-3.1-1.8-4.4-4c-1.3-2.2-1.7-3.7-1.7-5.6
		c0-1.9-0.3-8-0.3-8H23.4z M10.9,23.1c0.3,0,0.5,0.1,0.5,0.5c0,0.3-0.2,0.5-0.5,0.5c-0.3,0-0.5-0.2-0.5-0.5
		C10.5,23.3,10.6,23.1,10.9,23.1 M36,24.1c-0.3,0-0.5-0.2-0.5-0.5c0-0.3,0.2-0.5,0.5-0.5c0.3,0,0.5,0.2,0.5,0.5
		C36.5,23.9,36.3,24.1,36,24.1 M22.7,31.2c-1.7,0.8-3,0.1-3,0.1c-0.1-0.2,0-1.1,0-1.1H15c0,0,0,0,0,0c-0.9-0.5-1.2,0-1.3,0.2
		c-0.1,0.1-0.3,0.4-0.3,0.7c0,0.2,0.1,0.8,0.2,1.4c0.1,0.6,0,1.1,0,1.1s-1.7,5.5-2,6.1c-0.3,0.7-0.9,0.5-0.9,0.5L10.3,40
		c0.8-1,1.2-1.8,1.3-2.5c0-0.2,0-0.5,0-0.7c0-0.9-0.1-2.6-0.2-3l0-0.1l0-0.3c-0.1-0.3-0.1-0.8-0.1-1.5l0.1-2.4
		c-0.1-1.6-1-2.7-1.4-3.1c-0.1-0.2-0.2-0.4-0.2-0.7c0-0.1,0-0.3,0.1-0.4c0.1-0.3,0.7-0.5,1.2-0.6c0.6-0.1,1.5-0.3,1.5-0.3l4.9-1.1
		l-1.8,0c-1.7,0-3.7-0.2-4-0.4c-0.5-0.5-1-0.5-1.7-0.5c-0.8,0-1.7,0.9-2.2,2.3c-0.1,0.4-0.2,0.7-0.2,1c0,1.1,0.6,2,1.3,2.6
		c0.5,0.4,0.5,1.4,0.5,1.8v0.2c0,0.8-0.1,1.5-0.7,1.7C7,32.5,5.9,33.1,5,34c-0.8,0.8-1.3,2.6-2,4.3l-0.5,1.1c-1,2.2-1.1,3.6-1.1,3.9
		C0.2,45.8,0,47.1,0,47.7C0,47.9,0,48,0,48l0,0c0.1,0.2,0.2,0.2,0.5,0.3c0.3,0.1,0.6-0.1,0.8-0.2L1.6,48c0.4-0.2,1.2-0.7,2.6-1.8
		c0.9-0.7,1.7-1.5,2.1-2c0,0.4,0,0.8,0,0.8c0,0.4-0.1,0.7-0.3,1.1l-0.1,0.2c-0.1,0.3-0.1,0.5-0.1,0.7c0,0.2,0.1,0.4,0.1,0.5
		C5.8,47.5,6,48,6,48c0.1,0.4,0.4,1,0.5,1.5c-0.2,0.5-0.4,1.1-0.4,2c-0.1,1.2-1.7-1-1.7-1c0.5,0.7,0.3,3.4-0.4,3
		c-0.7-0.4-0.8-2-0.8-2C2.3,53,3,54.4,3,54.4l0.3,0.2C6.8,56.9,23.3,57,23.3,57h0c0,0,16.5-0.1,20-2.4l0.3-0.1c0.5-0.5,1-2.7,1-2.7
		c-0.3,0.8-2.1,0.9-2.1,0.9c-0.1-0.7,0.5-1.4,0.7-1.6c0,0,0,0,0,0c-1.4-0.7-2.6,0.3-2.6,0.3c-0.2-1.3,0.8-2.1,0.8-2.1
		c-0.3-0.1-0.5-0.1-0.8-0.1c0.1-0.4,0.3-0.8,0.4-1.1l0.2-0.5c0.1-0.2,0.1-0.3,0.1-0.6c0-0.2,0-0.4-0.1-0.7L41,46.1
		c-0.2-0.4-0.3-0.7-0.3-1.1c0,0,0-0.4,0-0.8c0.5,0.5,1.2,1.3,2.1,2c1.4,1.1,2.2,1.5,2.6,1.8c0,0,0.2,0.1,0.2,0.1
		c0.3,0.2,0.5,0.3,0.8,0.2c0.3-0.1,0.4-0.1,0.5-0.3l0,0c0,0,0-0.2,0-0.4c0-0.6-0.2-1.9-1.4-4.3c0-0.2-0.2-1.6-1.1-3.9l-0.5-1.1
		c-0.7-1.7-1.2-3.4-2-4.3c-0.9-0.9-2-1.5-3.5-2c-0.7-0.2-0.7-0.9-0.7-1.7c0,0,0-0.1,0-0.1c0-0.4,0-1.4,0.5-1.8
		c0.6-0.6,1.3-1.5,1.3-2.6c0-0.3-0.1-0.7-0.2-1c-0.5-1.4-1.4-2.3-2.2-2.3c-0.7,0-1.2,0-1.7,0.5c-0.2,0.2-2.2,0.4-4,0.4l-1.8,0
		l4.9,1.1c0,0,0.9,0.3,1.5,0.3c0.5,0.1,1.1,0.3,1.2,0.6c0,0.1,0.1,0.2,0.1,0.4c0,0.3-0.1,0.6-0.2,0.7c-0.4,0.4-1.4,1.5-1.4,3.1
		c0,0,0.1,2.4,0.1,2.4c0,0.8-0.1,1.2-0.1,1.5l0,0.3l0,0.1c0,0.4-0.2,2-0.2,3c0,0.2,0,0.5,0,0.7c0.1,0.7,0.5,1.6,1.3,2.5l-0.5,0.2
		c0,0-0.9,0.2-1.2-0.5c-0.3-0.7-2-6.1-2-6.1S33,33,33,32.4c0.1-0.6,0.2-1.1,0.2-1.4c0-0.3-0.1-0.6-0.3-0.7c-0.1-0.1-0.3-0.6-1.2-0.2
		v0l-7.5,0C23.4,30.9,22.7,31.2,22.7,31.2"/>
	<path fill="#B4975A" d="M26.7,1.3c-0.3-0.1-0.5,0.1-0.6,0.3c0,0.1,0,0.2,0,0.4c0,0,0,0,0,0C26,2,25.9,2.1,25.9,2.3
		c-0.1,0.2-0.1,0.2-0.2,0.3l-0.1,0c-0.1,0-0.1,0.1-0.1,0.1c-0.1-0.1-0.5-0.3-0.9-0.5c0,0,0,0,0,0c0-0.1,0-0.1-0.1-0.2l0,0
		c0,0,0,0,0-0.1c0,0,0,0,0-0.1c0,0,0.1-0.3,0.1-0.4c0.1,0,0.3-0.1,0.3-0.3l0-0.2c0,0,0,0-0.1-0.1c0.1-0.1,0.2-0.2,0.2-0.3
		c0,0,0-0.1,0-0.1c0-0.2-0.1-0.4-0.4-0.5c-0.1,0-0.3,0-0.4,0c-0.1,0.1-0.2,0.2-0.2,0.3c0,0.1,0,0.3,0,0.4c0,0,0,0,0,0L24,0.9
		c0,0,0,0.1,0,0.1c0,0.2,0.1,0.3,0.1,0.3c0,0.1-0.1,0.4-0.1,0.4c0,0.1,0,0.1-0.1,0.1l0,0c-0.1,0-0.1,0.1-0.2,0.2
		c-0.4-0.1-0.8-0.1-1-0.1c0-0.1,0-0.1-0.1-0.2l0-0.1c-0.1-0.1-0.1-0.2,0-0.4c0.1-0.2,0.1-0.3,0-0.4c0,0,0,0,0,0
		c0.1-0.1,0.2-0.2,0.2-0.3c0,0,0-0.1,0-0.1c0-0.1,0-0.2-0.1-0.2C22.7,0.1,22.6,0,22.4,0c-0.1,0-0.3,0-0.4,0
		c-0.1,0.1-0.2,0.2-0.2,0.3c-0.1,0.2,0,0.4,0.1,0.5c-0.1,0.1-0.1,0.2-0.1,0.2c0,0,0.2,1,0.2,1.4C22.7,2.6,23.5,2.8,24,3
		c0.5,0.1,1.1,0.3,1.6,0.6l0.9-1c0,0,0.1-0.1,0.1-0.3c0.1,0,0.1,0,0.1,0C26.9,2.1,27,2,27,1.9C27.1,1.6,26.9,1.3,26.7,1.3"/>
	<path fill="#B4975A" d="M28.5,28.9c0,0,0,0.1-0.1,0.2c0,0-0.1,0.4-0.5,0.8h-3.2c0,0,1.4-1.6,3.1-1.6C27.7,28.3,28.4,28.9,28.5,28.9
		"/>
	<path fill="#B4975A" d="M28,23.1l-0.7-1.5l-0.7-1.3c0.7,0.7,3.5,3.3,3.5,3.3c0.6,0.6,2,1,2.1,1c0,0,0.6,0.2,0.7,1.1
		c0.1,0.5,0.2,0.8,0.2,0.9c-0.3,0.2-1.3,0.5-1.9-0.1C30.5,25.6,28.3,23.4,28,23.1"/>
	<path fill="#B4975A" d="M24.2,5.3c-0.3,0-0.5-0.2-0.5-0.5c0-0.3,0.2-0.5,0.5-0.5c0.3,0,0.5,0.2,0.5,0.5C24.7,5.1,24.4,5.3,24.2,5.3
		 M22.7,4.8c-0.3,0-0.5-0.2-0.5-0.5c0-0.3,0.2-0.5,0.5-0.5c0.3,0,0.5,0.2,0.5,0.5C23.2,4.6,23,4.8,22.7,4.8 M25.3,4.7
		c0.1,0,0.2-0.1,0.4-0.2c0.1-0.1,0.1-0.4,0.1-0.6c-0.4-0.2-1-0.4-1.8-0.7c-1-0.3-1.7-0.4-2.1-0.4c0,0,0,0,0,0
		c-0.1,0.1-0.1,0.2-0.1,0.4c0,0.2-0.1,0.3-0.1,0.5c0,0.3,0.2,0.2,0.2,0.2l-0.1,0.2c-0.4,0-1.1,0.8-1.1,0.8c0.2-0.2,0.6,0,0.6,0
		s-0.4,0-0.8,0.4c-0.4,0.4-0.3,1.2-0.3,1.2c0.1-0.1,0.2,0,0.2,0C19.9,7,20,7.8,20,7.8c0.2-0.3,0.7-0.5,0.7-0.5s-0.1,0.1-0.3,0.4
		c-0.1,0.1-0.2,0.3-0.2,0.4c0,0.2,0.1,0.6,0.1,1c0.1-0.1,0.1-0.1,0.2-0.2c0.3-0.3,0.5-0.5,0.7-0.8c0,0,0,0,0,0l0.3,0.2c0,0,0,0,0,0
		c0,0-0.4,0.6-0.5,1.5c-0.1,0.6-0.1,1-0.2,1.3c0.4-0.3,1-0.7,1.3-1.1l0.1-0.1c0.4-0.6,0.5-0.8,0.5-1.2V8.3l0.3,0.3
		c0,0,0.1,0.2,0.1,0.3c0,0.2,0,0.5-0.1,0.7c0.3-0.1,0.8-0.5,0.8-1.3l0.4,0c0,0,0,0.3,0,0.6c0,0.1,0,0.3,0,0.4c0,0,0,0,0.1,0
		c0.9-0.6,0.6-2,0.6-2C24.8,7.5,25,8,25,8c0.5-1,0.1-1.9,0.1-1.9c0.3,0.1,0.4,0.5,0.4,0.5c0.4-1.4-0.3-1.8-0.3-1.8
		S25.2,4.7,25.3,4.7"/>
	<path fill="#B4975A" d="M15.9,6c-0.1,0.1,0.1,0.5,0.4,0.5c0.3,0,0.7,0.5,0.7,0.5c-0.6,0.4-0.7,1-0.7,1c0.5-0.1,1.1,0.1,1.1,0.1
		c-0.3,0.3-0.2,1.3-0.2,1.3c0.5-0.4,1.1-0.2,1.1-0.2s-0.4,0.6,0,1.2c0,0,0.5-0.3,0.8-0.1c0,0,0,0,0,0l0.9-1c0-0.6-0.1-1.1-0.2-1.3
		l-0.3-0.2c0,0-1.2-1-1.3-1.2C18,6.6,18,6.3,18,6.2c0-0.2,0.3-0.4,0.3-0.6c0-0.2-0.2-0.4-0.2-0.4c0-0.4-0.1-0.9-0.1-0.9
		C17.9,4.6,17.7,5,17.7,5C17.5,4.2,17,4.1,17,4.1c0.2,0.4,0.1,1,0.1,1c-0.5-0.8-1.1-0.4-1.1-0.4c0.5,0,0.5,0.9,0.5,0.9
		c-0.6-0.3-1.4,0.3-1.4,0.3c0.2-0.1,0.8,0,0.9,0C16,5.9,16,5.9,15.9,6"/>
	<path fill="#B4975A" d="M18,23.8c0,0-0.5,0-0.9-0.3l-3,0.9c0,0-0.9,0-1.2,1l-0.3,1c0,0,0.6,0.5,1,0.5c0.5,0,1.2,0.2,1.8-0.5
		C15.9,25.9,17.3,24.5,18,23.8"/>
	<path fill="#B4975A" d="M26.9,27.2c-0.1-0.3-0.2-0.5-0.2-0.7c0-0.2-0.2-1.4-0.3-1.6v0.9V26c0,1.2-0.5,1.4-0.5,1.5L24.5,28l-0.1-0.1
		c0,0-0.1-0.2-0.4-0.5c-0.3-0.3-0.4-0.5,0-2.1c0.2-0.7,0.3-1.9,0.3-2.9c-0.8,0.3-3.4,1.4-5.1,1.5l-0.2,0c0.9,1,1.4,2.2,1.6,2.9
		c0,0,0,0.2,0,0.2l0.5,2.2l-0.2,0.5c0,0-0.2-1.1-0.4-1.8C19.8,29.3,20,31,20,31c2.6,0.7,4.8-1.8,4.8-1.8c1.3-1,2.2-1.2,2.8-1.2
		C27.6,28.1,27,27.5,26.9,27.2"/>
	<path fill="#B4975A" d="M23.3,19.3c-2.3,0-3.8,0.6-4.2,0.7c-0.1,0-0.4-0.1-0.4-0.4c0-0.2,0.1-0.3,0.1-0.6l0.2-0.7
		c0-0.1,0.1-0.4,0.6-0.6c0.8-0.3,1.6-0.4,2.5-0.5l1.1,0c0.3,0,2.1,0.1,3.6,0.5c0.5,0.1,0.5,0.6,0.5,0.7c0,0,0.2,0.8,0.2,0.8
		c0.1,0.2,0.1,0.3,0.1,0.4c0,0.2,0,0.3-0.1,0.3c0,0.1-0.1,0.1-0.1,0.1c0,0-0.1,0-0.1,0C27,19.8,25.6,19.3,23.3,19.3 M17.9,15.8
		c0.2-0.1,0.4-0.2,0.6-0.3c0.2,0.3,0.7,0.8,1.5,1.7c-0.1,0-0.3,0.1-0.4,0.1c-0.5,0.2-0.7,0.4-0.8,0.6L17.9,15.8z M16.9,14.6
		c0-0.4,0.3-0.7,0.7-0.7c0.4,0,0.7,0.3,0.7,0.7c0,0.4-0.3,0.7-0.7,0.7C17.2,15.3,16.9,15,16.9,14.6 M18.4,12.9
		c0,0.5,0.4,0.8,0.4,0.8c0.4-0.4,0.5-0.9,0.5-0.9c0,0.6,0.4,0.8,0.4,0.8c0.4-0.4,0.4-1,0.4-1c0.1,0.5,0.7,0.6,0.7,0.6
		c0.2-0.3,0.2-1.2,0.2-1.2c0,0.5,0.5,0.7,0.5,0.7c0.2,0.1,0.4,0.1,0.4,0.1l0.5,0.2c-0.1,0.1-0.1,0.2-0.1,0.4c-0.1,0.3,0,0.6,0.2,0.9
		c0,0.1,0.1,0.1,0.1,0.2c0,0.4-0.1,1.3-0.3,2.3c-0.6,0.1-1.1,0.1-1.6,0.3c-1.2-1.2-1.8-1.9-1.8-2c0-0.1,0-0.2,0-0.3
		c0-0.5-0.4-1-0.9-1.1C18.1,13.2,18.4,12.9,18.4,12.9 M24.2,16.6c-0.2,0-0.6,0-0.9,0h0c-0.2,0-0.4,0-0.6,0c0.1-0.6,0.2-1.4,0.3-2
		c0.1,0,0.4,0.1,0.4,0.1c0.1,0,0.3,0,0.4-0.1C23.9,15.1,24.1,16.2,24.2,16.6 M22.7,13.4c0-0.2,0.1-0.3,0.3-0.4
		c0.1-0.1,0.3-0.1,0.5-0.1c0.2,0,0.3,0.1,0.4,0.3v0c0.1,0.1,0.1,0.3,0.1,0.5c0,0.2-0.1,0.3-0.3,0.4c-0.1,0.1-0.3,0.1-0.5,0.1
		c-0.2,0-0.3-0.1-0.4-0.3C22.7,13.8,22.7,13.6,22.7,13.4 M26.6,11.3c-0.7-2.3-0.3-2.6-0.3-2.8c0-0.4,0.6-1.2,1.3-1.2
		c0.7,0,0.7,0.8,0.7,0.8s0.1,0.6-0.6,0.6c-0.7,0-0.6-0.5-0.6-0.5s-0.2,0.5-0.1,1.1C27,9.8,28,9.8,28,9.8c-1,0.4-0.6,2.1-0.6,2.1
		s0.4,1.9,0.5,2.4c0,0.1,0,0.2,0,0.3c0,0.1,0,0.2,0,0.3c0,0,0,0,0,0l0,0c0,0.1-0.3,0.5-0.7,0.9c0.1-0.3,0.2-0.5,0.2-0.8
		C27.5,14.2,27.4,13.5,26.6,11.3 M28.2,15.4c0.1,0.2,0.4,0.3,0.6,0.3c-0.2,0.4-0.6,1.4-0.9,2.1c-0.1-0.3-0.3-0.5-0.8-0.7
		c-0.1,0-0.2-0.1-0.3-0.1C27.2,16.7,27.9,16,28.2,15.4 M29.1,13.9c0.4,0,0.7,0.3,0.7,0.7c0,0.4-0.3,0.7-0.7,0.7
		c-0.4,0-0.7-0.3-0.7-0.7C28.4,14.2,28.7,13.9,29.1,13.9 M41.9,18.6c0.4-0.4,0.9-1.4,0.9-1.4l0.1-0.2l-1.8-0.6c0,0-0.8-0.4-1.7,0.3
		c-0.7,0.5-2,1.2-2.7,1.5c0.5-1.1,1.4-3,2.1-3.7c0.2,0.4,0.4,1,0.4,1s2.1-0.1,2.1-2c0-0.8-0.2-1.6-1-2.1c0,0-0.4-0.1-0.9-0.2l0,0
		c-0.1,0-1.3-0.2-2,0.8c-0.6,0.8-1.7,2.4-2.4,4.2c-0.3,0.6-0.5,1-0.6,1.2c0-0.2-0.1-0.5-0.1-0.8c-0.1-1-0.2-2.2-0.5-2.9
		c-0.5-1.2-1.5-1.5-2.2-1.5h-0.1l-0.1,0.1c0,0-0.2,0.6-0.2,1.3c0,0.4,0.1,0.8,0.3,1.1c0.4,0.6,1.1,1.9,1.4,2.7
		c-0.5-0.2-1.4-0.5-2-0.5c-1.1,0-1.7,0.7-1.7,1.9V19l0.1,0.1c0.3,0.3,1.2,0.8,2.1,0.2c0.5-0.3,0.8,0,1.1,0.3l0.1,0.1
		c0,0,0.1,0.2,0.2,0.5c-0.2,0.6-0.9,1.4-2.1,1.5c-1.1,0.1-2.3-0.7-3-1.1c0.1,0,0.1-0.1,0.1-0.1c0.1-0.1,0.3-0.3,0.3-0.8
		c0-0.3-0.1-0.4-0.1-0.6l-0.1-0.3l1.2-2.9c0.5-0.1,0.9-0.6,0.9-1.2c0-0.7-0.5-1.2-1.2-1.2c-0.5,0-1,0.4-1.2,0.9
		c0-0.5,0.1-1.2,0.3-1.6c0.2-0.5,1.1-1.7,1.3-2.7c0.2-1,0.4-2.5-0.7-3.3c-1.1-0.8-2.2-0.2-2.7,0.1c-0.5,0.3-0.8,1.7-0.8,2.5
		c0,0.8,0.5,2.7,0.7,3.3c0.2,0.6,0.5,1.8,0.5,2.5c0,0.8-0.4,1.6-0.4,1.6L25.8,17c0,0,0,0-0.1,0c0-0.3,0.1-1.2,0.1-2.2
		c0-1.1-0.6-2.5-1.3-3.7c-0.4-0.6-0.5-1.1-0.6-1.4l-0.6,0.4l0.2-0.5c0,0,0-0.1,0-0.1c-0.4,0.5-0.9,0.6-0.9,0.6c0,0-0.2,0-0.3,0
		c0,0,0,0,0,0c-0.5,0.8-1.7,1.5-1.8,1.5l-0.4,0.2l0.2-0.4c0.1-0.3,0.2-0.7,0.3-1.7c0-0.2,0.1-0.4,0.1-0.5c-0.3,0.3-0.5,0.4-0.5,0.4
		l-0.1,0.1L19,10.9h0c0,0-0.1,0.1-0.1,0.1l-0.1,0.1l0,0c-0.2,0.3-0.7,0.7-0.8,0.8c-0.2,0.2-0.4,0.1-0.4,0.1
		c-0.3-0.3-0.8-0.4-0.8-0.4c-1-0.1-1.4,0.9-1.4,0.9c0.3-0.3,0.8-0.1,0.8-0.1c-0.8,0.2-0.7,1.2-0.7,1.2c0.3-0.5,0.6-0.5,0.6-0.5l0,0
		c0.2,0.2,0.5,0.1,0.5,0.1c-0.2,0.2-0.2,0.5-0.2,0.8c-0.1,0.2-0.2,0.4-0.2,0.6c0,0.6,0.4,1.1,0.9,1.2c0.2,0.4,0.8,1.9,1.2,2.8
		l-0.1,0.3c-0.1,0.3-0.1,0.5-0.1,0.7c0,0.6,0.6,0.9,0.8,0.9l-1.6,2.8c0.6,0.3,1.1,0.1,1.1,0.1l5.8-1.1c0.1-1.2,0.1-2.3,0.1-2.3
		l0-0.3c0.3,0,0.6,0.1,0.9,0.1l0.7,0.1c0.5,0.1,0.8,0.2,1,0.3l3.1,2.6l1.9-0.2l0.6-0.2c0,0,3.2-1.1,5.2-0.7c0,0,0.9,0.2,1.3,0.3
		c0.6,0.2,1.2,0.1,1.7-0.2l1.1-0.8l-0.2-0.2c0,0-0.7-0.8-0.7-0.8c-0.1-0.1-0.4-0.5-1.2-0.4c-0.6,0.1-1.3,0.1-2.3,0.1
		c0.8-0.3,1.8-0.6,2.2-0.6C40.7,19.3,41.4,19.1,41.9,18.6"/>
	<path fill="#B4975A" d="M26.1,20.1l3,6.2c0,0,0.4,0.8-0.3,2.7c0,0-1.6-1.2-1.8-2.3l-0.6-2.9C26.4,23.7,26.5,21.1,26.1,20.1"/>
	<path fill="#03296A" d="M68.6,45.6c0,3.6-2.1,5.5-5.8,5.5c-3.8,0-6.1-1.7-6.1-5.5v-9.1h2v9.1c0,2.5,1.5,3.9,4.1,3.9
		c2.5,0,3.9-1.4,3.9-3.9v-9.1h2V45.6z"/>
	<path fill="#03296A" d="M69.8,40.4h1.7V42h0c0.7-1.3,2-1.9,3.5-1.9c2.8,0,3.7,1.6,3.7,3.8v6.8H77v-7c0-1.3-0.8-2.1-2.2-2.1
		c-2.1,0-3.2,1.4-3.2,3.2v5.8h-1.8V40.4z"/>
	<path fill="#03296A" d="M80.2,40.4H82v10.3h-1.8V40.4z M82,38.5h-1.8v-2.1H82V38.5z"/>
	<polygon fill="#03296A" points="88.8,50.7 86.9,50.7 82.9,40.4 84.9,40.4 87.9,49 87.9,49 90.8,40.4 92.7,40.4 	"/>
	<path fill="#03296A" d="M100.5,44.6c-0.1-1.6-1.3-2.9-3.1-2.9c-1.9,0-3,1.3-3.1,2.9H100.5z M102.2,47.4c-0.5,2.3-2.2,3.5-4.6,3.5
		c-3.4,0-5.1-2.3-5.2-5.4c0-3.1,2.1-5.4,5.1-5.4c3.8,0,5,3.4,4.9,5.9h-8c-0.1,1.8,1,3.4,3.3,3.4c1.5,0,2.5-0.7,2.8-2H102.2z"/>
	<path fill="#03296A" d="M103.8,40.4h1.7v2.2h0c0.9-1.7,2-2.5,4-2.4v1.8c-2.9,0-3.9,1.6-3.9,4.2v4.6h-1.8V40.4z"/>
	<path fill="#03296A" d="M111.8,47.5c0.1,1.5,1.4,2,2.9,2c1.1,0,2.6-0.2,2.6-1.5c0-1.3-1.7-1.5-3.5-1.9c-1.7-0.4-3.5-0.9-3.5-2.9
		c0-2.1,2.1-2.9,4-2.9c2.4,0,4.3,0.7,4.4,3.2h-1.8c-0.1-1.3-1.3-1.7-2.5-1.7c-1.1,0-2.3,0.3-2.3,1.3c0,1.2,1.9,1.4,3.5,1.8
		c1.8,0.4,3.5,0.9,3.5,2.9c0,2.5-2.4,3.3-4.6,3.3c-2.4,0-4.4-0.9-4.6-3.5H111.8z"/>
	<path fill="#03296A" d="M120.4,40.4h1.8v10.3h-1.8V40.4z M122.2,38.5h-1.8v-2.1h1.8V38.5z"/>
	<path fill="#03296A" d="M127,40.4h2.1v1.5H127v6.4c0,0.8,0.2,0.9,1.3,0.9h0.8v1.5h-1.3c-1.8,0-2.6-0.4-2.6-2.3v-6.6h-1.8v-1.5h1.8
		v-3.1h1.8V40.4z"/>
	<path fill="#03296A" d="M135.3,52.1c-0.8,2-1.5,2.8-3.1,2.8c-0.4,0-0.8,0-1.2-0.2v-1.6c0.3,0.1,0.7,0.2,1,0.2
		c0.7,0,1.1-0.3,1.5-0.9l0.7-1.8l-4.3-10.3h2l3.1,8.4h0l3-8.4h1.9L135.3,52.1z"/>
	<path fill="#03296A" d="M71.7,18.9h1.7v1.7h0c0.8-1.3,2-2,3.5-2c2.8,0,3.7,1.6,3.7,3.9v7.1h-1.8v-7.3c0-1.3-0.8-2.2-2.2-2.2
		c-2.1,0-3.2,1.4-3.2,3.4v6.1h-1.8V18.9z"/>
	<path fill="#03296A" d="M89.9,24.1c0-1.9-0.8-3.8-3.1-3.8c-2.3,0-3.2,1.9-3.2,3.9c0,1.9,0.7,4.1,3,4.1
		C89.1,28.2,89.9,26.1,89.9,24.1 M91.7,28.8c0,3.5-1.6,5.3-5,5.3c-2,0-4.3-0.8-4.4-3.2H84c0.1,1.3,1.6,1.7,2.8,1.7
		c2.3,0,3.2-1.7,3.2-4.1v-0.7h0c-0.6,1.3-2,2-3.4,2c-3.2,0-4.8-2.5-4.8-5.4c0-2.5,1.2-5.7,5-5.7c1.4,0,2.6,0.6,3.2,1.8h0v-1.5h1.7
		V28.8z"/>
	<rect x="93.6" y="14.8" fill="#03296A" width="1.8" height="14.8"/>
	<path fill="#03296A" d="M97,18.9h1.8v10.8H97V18.9z M98.7,17H97v-2.2h1.8V17z"/>
	<path fill="#03296A" d="M107.3,24.1c-0.7,0.5-2,0.5-3.2,0.7c-1.2,0.2-2.2,0.6-2.2,1.9c0,1.2,1,1.6,2.1,1.6c2.3,0,3.3-1.5,3.3-2.4
		V24.1z M110.2,29.6c-0.3,0.2-0.7,0.3-1.3,0.3c-0.9,0-1.5-0.5-1.5-1.7c-1,1.1-2.3,1.7-3.8,1.7c-2,0-3.6-0.9-3.6-3
		c0-2.4,1.8-3,3.6-3.3c2-0.4,3.6-0.3,3.6-1.6c0-1.5-1.3-1.8-2.4-1.8c-1.5,0-2.6,0.5-2.7,2h-1.8c0.1-2.7,2.2-3.6,4.6-3.6
		c1.9,0,4,0.4,4,3v5.5c0,0.8,0,1.2,0.6,1.2c0.1,0,0.3,0,0.5-0.1V29.6z"/>
	<path fill="#03296A" d="M121.5,21.7c1.9,0,3.4-0.5,3.4-2.6c0-1.5-0.8-2.5-2.6-2.5h-4.9v5.2H121.5z M115.4,14.8h7
		c2.8,0,4.5,1.5,4.5,3.9c0,1.8-0.8,3.3-2.6,3.8v0c1.7,0.3,2.1,1.6,2.2,3.1c0.1,1.5,0,3.1,0.9,4.1h-2.2c-0.6-0.6-0.2-2.2-0.5-3.7
		c-0.2-1.5-0.6-2.7-2.5-2.7h-4.8v6.3h-2V14.8z"/>
	<path fill="#03296A" d="M137,29.7h-1.7V28h0c-0.7,1.3-2,2-3.5,2c-2.8,0-3.7-1.6-3.7-3.9v-7.1h1.8v7.3c0,1.3,0.8,2.2,2.2,2.2
		c2.1,0,3.2-1.4,3.2-3.4v-6.1h1.8V29.7z"/>
	<path fill="#03296A" d="M139.9,26.3c0.1,1.6,1.4,2.1,2.9,2.1c1.1,0,2.6-0.2,2.6-1.6c0-1.4-1.7-1.6-3.5-2c-1.7-0.4-3.5-1-3.5-3
		c0-2.2,2.1-3.1,4-3.1c2.4,0,4.3,0.7,4.4,3.4H145c-0.1-1.4-1.3-1.8-2.5-1.8c-1.1,0-2.3,0.3-2.3,1.4c0,1.3,1.9,1.5,3.5,1.9
		c1.8,0.4,3.5,1,3.5,3.1c0,2.6-2.4,3.4-4.6,3.4c-2.4,0-4.4-1-4.6-3.6H139.9z"/>
	<polygon fill="#03296A" points="148.5,14.8 150.3,14.8 150.3,23.6 155.2,18.9 157.5,18.9 153.3,22.8 157.9,29.7 155.6,29.7 
		151.9,24.1 150.3,25.6 150.3,29.7 148.5,29.7 	"/>
	<path fill="#03296A" d="M158.9,18.9h1.8v10.8h-1.8V18.9z M160.6,17h-1.8v-2.2h1.8V17z"/>
	<path fill="#03296A" d="M162.1,18.9h1.7v1.7h0c0.8-1.3,2-2,3.5-2c2.8,0,3.7,1.6,3.7,3.9v7.1h-1.8v-7.3c0-1.3-0.8-2.2-2.2-2.2
		c-2.1,0-3.2,1.4-3.2,3.4v6.1h-1.8V18.9z"/>
	<path fill="#03296A" d="M66.1,23.5l-2.5-6.9L61,23.5H66.1z M56.7,29.7L63.6,12l6.9,17.6h-2.2l-1.6-4.5h-6.3l-1.7,4.5H56.7z"/>
</g>
</svg>
